<svg width="11" height="9" viewBox="0 0 11 9" fill="none" xmlns="http://www.w3.org/2000/svg">
<path fill-rule="evenodd" clip-rule="evenodd" d="M9.15245 0.00419743C9.11493 0.0123565 8.04406 1.21861 6.77277 2.68481C5.50149 4.15105 4.42425 5.36235 4.37889 5.37661C4.33357 5.39088 4.25219 5.37913 4.19806 5.35047C4.14388 5.32176 3.58404 4.81176 2.95389 4.21709C2.32377 3.62242 1.76217 3.11861 1.70588 3.09755C1.64964 3.07653 1.56486 3.07392 1.51752 3.09187C1.43287 3.1239 0.0980687 4.51474 0.0212951 4.65089C-0.000308295 4.6892 -0.00650524 4.76584 0.007481 4.82116C0.0339473 4.92586 4.27526 8.94067 4.41198 8.99043C4.45321 9.00543 4.52818 9.00248 4.57861 8.98381C4.68693 8.94379 10.9235 1.76903 10.9823 1.61687C11.01 1.54506 11.0054 1.48274 10.9673 1.41559C10.8945 1.28726 9.42482 0.0436257 9.30992 0.0131254C9.26086 9.65276e-05 9.18998 -0.00391891 9.15245 0.00419743Z" fill="white"/>
</svg>
