<svg width="29" height="26" viewBox="0 0 29 26" fill="none" xmlns="http://www.w3.org/2000/svg">
<path fill-rule="evenodd" clip-rule="evenodd" d="M7.103 0.52104C5.17793 0.670221 3.45958 1.54639 2.17616 3.03333C0.688623 4.75669 -0.0590573 7.28834 0.200767 9.72218C0.40703 11.6541 1.22021 13.4667 2.84977 15.6266C4.0546 17.2236 5.6411 18.913 10.2913 23.5507C12.6644 25.9173 12.754 25.9894 13.1968 25.8881C13.4235 25.8363 16.0028 23.9346 19.9394 20.917C25.0314 17.0137 27.1237 14.5637 27.8539 11.6495C28.4481 9.27815 28.0594 6.66399 26.829 4.75673C25.9867 3.45097 24.6434 2.34833 23.3126 1.87024C21.5759 1.24632 19.8573 1.26358 18.2616 1.92088C16.9049 2.47983 15.4804 3.70076 14.6026 5.05706C14.5136 5.1946 14.4235 5.30586 14.4024 5.30439C14.3813 5.30292 14.3075 5.18023 14.2385 5.03169C14.1694 4.88314 13.9793 4.53668 13.8159 4.26174C12.2735 1.66566 9.83907 0.309057 7.103 0.52104Z" fill="url(#paint0_radial_21_125)"/>
<defs>
<radialGradient id="paint0_radial_21_125" cx="0" cy="0" r="1" gradientUnits="userSpaceOnUse" gradientTransform="translate(13.8351 13.4431) rotate(93.9868) scale(12.5 14)">
<stop stop-color="#E5E5E5"/>
<stop offset="1" stop-color="#B4B4B4"/>
</radialGradient>
</defs>
</svg>
